HIERARCHY
ROOT hip
{
	OFFSET 0.000000 0.000000 0.000000 
	CHANNELS 6 Xposition Yposition Zposition Xrotation Zrotation Yrotation
	JOINT abdomen
	{
		OFFSET 0.000000 3.402643 0.000000 
		CHANNELS 3 Xrotation Zrotation Yrotation
		JOINT chest
		{
			OFFSET 0.000000 8.438565 -0.680529 
			CHANNELS 3 Xrotation Zrotation Yrotation
			JOINT neck
			{
				OFFSET 0.000000 10.207942 -0.272212 
				CHANNELS 3 Xrotation Zrotation Yrotation
				JOINT head
				{
					OFFSET 0.000000 3.130431 0.000000 
					CHANNELS 3 Xrotation Zrotation Yrotation
					End Site
					{
						OFFSET 0.000000 3.130435 0.000000 
					}
				}
			}
			JOINT lCollar
			{
				OFFSET 3.470700 6.669187 -0.816635 
				CHANNELS 3 Yrotation Zrotation Xrotation
				JOINT lShldr
				{
					OFFSET 3.198488 0.000000 0.000000 
					CHANNELS 3 Zrotation Yrotation Xrotation
					JOINT lForeArm
					{
						OFFSET 10.139888 0.000000 0.000000 
						CHANNELS 3 Yrotation Zrotation Xrotation
						JOINT lHand
						{
							OFFSET 8.370511 0.000000 0.000000 
							CHANNELS 3 Zrotation Yrotation Xrotation
							End Site
							{
								OFFSET 4.083176 0.000000 0.000000 
							}
						}
					}
				}
			}
			JOINT rCollar
			{
				OFFSET -3.470700 6.669187 -0.816635 
				CHANNELS 3 Yrotation Zrotation Xrotation
				JOINT rShldr
				{
					OFFSET -3.198488 0.000000 0.000000 
					CHANNELS 3 Zrotation Yrotation Xrotation
					JOINT rForeArm
					{
						OFFSET -10.139888 0.000000 0.000000 
						CHANNELS 3 Yrotation Zrotation Xrotation
						JOINT rHand
						{
							OFFSET -8.370511 0.000000 0.000000 
							CHANNELS 3 Zrotation Yrotation Xrotation
							End Site
							{
								OFFSET -4.083176 0.000000 0.000000 
							}
						}
					}
				}
			}
		}
	}
	JOINT lThigh
	{
		OFFSET 5.308129 -1.633274 1.361059 
		CHANNELS 3 Xrotation Zrotation Yrotation
		JOINT lShin
		{
			OFFSET -2.041588 -20.007561 0.000000 
			CHANNELS 3 Xrotation Zrotation Yrotation
			JOINT lFoot
			{
				OFFSET 0.000000 -19.190928 -1.224953 
				CHANNELS 3 Xrotation Yrotation Zrotation
				End Site
				{
					OFFSET 0.000000 -2.449906 4.627600 
				}
			}
		}
	}
	JOINT rThigh
	{
		OFFSET -5.308129 -1.633274 1.361059 
		CHANNELS 3 Xrotation Zrotation Yrotation
		JOINT rShin
		{
			OFFSET 2.041588 -20.007561 0.000000 
			CHANNELS 3 Xrotation Zrotation Yrotation
			JOINT rFoot
			{
				OFFSET 0.000000 -19.190928 -1.224953 
				CHANNELS 3 Xrotation Yrotation Zrotation
				End Site
				{
					OFFSET 0.000000 -2.449906 4.627600 
				}
			}
		}
	}
}
MOTION
Frames: 11
Frame Time: 0.016667
0.607270 46.546535 1.214094 6.712082 5.927258 -22.165062 12.076006 -4.372137 5.797870 -8.893641 -1.125994 6.290146 28.963348 -12.087990 -1.018996 -21.366550 11.658996 44.268089 9.838408 15.780553 21.595554 -2.388494 -42.909607 -18.619688 -89.865730 34.050186 27.032612 -30.675308 2.228960 -11.079062 -10.115070 -8.543641 22.965162 23.505238 14.398812 86.126251 86.458931 -52.545483 37.574512 -1.502834 12.402785 -33.158646 -4.852581 -0.332477 16.943331 33.100979 -4.011171 -2.206455 -18.545008 9.225042 9.362442 -33.883877 -18.719017 -3.320656 52.663380 4.991860 4.946007 9.186751 5.460155 14.324018 
0.562440 46.311226 1.300581 6.348933 6.279549 -22.593225 12.076006 -4.372137 5.797870 -9.007281 -1.184258 6.280574 29.391855 -12.615095 -1.061352 -21.169748 11.814760 44.584297 10.008995 15.714033 21.556328 -1.368394 -42.453037 -19.052610 -84.624687 33.109478 24.420393 -29.796240 2.361084 -11.033080 -9.857587 -8.618299 22.998371 23.678942 14.406223 86.250328 86.657684 -53.346069 38.344078 -0.523688 11.961644 -32.966988 -5.404660 -0.305090 16.910894 34.967102 -4.333199 -2.409756 -19.360697 10.418805 9.797327 -34.069870 -19.031961 -3.399449 53.468494 4.813949 4.970579 7.184974 5.726606 13.849917 
0.550051 46.024792 1.361988 5.731256 6.561119 -23.128809 12.076006 -4.372137 5.797870 -8.671171 -1.145408 6.290143 29.860128 -13.395951 -1.125075 -20.891897 11.993831 44.916245 10.225889 15.612484 21.506762 -0.873342 -41.926811 -19.268950 -79.406281 31.686167 22.117634 -28.615131 2.488013 -11.005524 -9.539240 -8.709677 23.038042 23.709082 14.785741 86.145042 86.535431 -54.250702 39.106514 0.576060 11.319260 -32.882389 -5.872209 -0.256879 16.912386 37.172424 -4.744459 -2.586549 -20.252129 11.147972 9.831580 -34.645847 -19.236856 -3.442043 54.979111 4.384584 5.022713 5.266997 5.693880 13.028417 
0.537663 45.738377 1.423389 5.120629 6.830297 -23.673506 12.076006 -4.372137 5.797870 -8.335930 -1.116287 6.290148 30.329985 -14.166997 -1.188996 -20.606619 12.179000 45.241314 10.442637 15.510726 21.459763 -0.390899 -41.412006 -19.460505 -74.339241 30.081793 20.011234 -27.432186 2.606292 -10.973082 -9.233736 -8.795646 23.075098 23.749420 15.171866 86.048599 86.431686 -55.151020 39.876232 1.673738 10.676464 -32.809319 -6.329884 -0.208656 16.912867 39.349808 -5.135600 -2.822178 -21.114630 11.897137 9.866810 -35.217628 -19.449022 -3.488790 56.493633 3.964617 5.077920 3.332991 5.688876 12.237150 
0.558034 45.500668 1.449200 4.447364 7.107974 -23.846127 12.076006 -4.372137 5.797870 -7.764335 -1.252253 6.261253 30.634089 -14.664727 -1.231703 -20.403683 12.291764 45.286888 10.357887 15.437194 21.502218 -0.207914 -40.878231 -19.518675 -70.255005 28.771120 18.600691 -26.628435 2.709776 -11.018066 -9.200519 -8.641768 23.110924 23.510155 15.497324 85.753487 85.860352 -56.093861 40.408066 2.567295 10.595417 -32.707973 -6.659711 -0.380928 16.853369 41.101414 -5.379656 -2.963879 -21.788237 12.197200 9.639467 -35.522388 -19.733473 -3.566046 57.577271 3.359270 5.063380 2.099262 5.643958 11.794889 
0.578405 45.262970 1.475008 3.772389 7.384870 -24.019331 12.076006 -4.372137 5.797870 -7.192366 -1.388260 6.222419 30.938967 -15.162435 -1.277026 -20.202663 12.406466 45.323372 10.273258 15.363547 21.544661 -0.028991 -40.347343 -19.578243 -66.254341 27.368052 17.313828 -25.834501 2.813184 -11.063256 -9.181881 -8.481134 23.136644 23.279396 15.827432 85.463890 85.295525 -57.032646 40.930786 3.454663 10.521617 -32.612953 -6.955348 -0.549546 16.782721 42.874790 -5.614919 -3.105699 -22.500132 12.510413 9.418526 -35.826702 -20.017500 -3.651221 58.655178 2.753699 5.025093 0.850062 5.633970 11.350349 
0.627366 45.094742 1.486083 3.682021 7.795771 -23.579268 12.076006 -4.372137 5.797870 -7.182116 -1.572830 6.183859 30.846418 -15.074624 -1.265044 -20.062220 12.155950 45.144920 9.909316 15.676449 21.601164 -0.421335 -40.174500 -19.394979 -63.233715 26.625671 16.675529 -25.556652 2.691318 -11.098114 -9.590879 -8.405174 23.081545 23.238937 15.850335 85.425735 84.387848 -57.948963 40.705845 4.105916 10.730906 -32.371410 -7.580297 -0.890973 16.656431 43.925945 -5.663800 -3.190398 -22.933554 12.482482 9.276937 -36.316395 -20.536005 -3.804460 59.325096 2.324031 4.989828 0.261802 5.581243 11.454864 
0.676329 44.926529 1.497159 3.601692 8.199835 -23.140469 12.076006 -4.372137 5.797870 -7.162152 -1.757395 6.155129 30.753685 -14.977046 -1.255603 -19.915100 11.912844 44.960247 9.548531 15.980035 21.658009 -0.811851 -40.001015 -19.219965 -60.237366 25.850454 16.089500 -25.289835 2.576716 -11.138415 -9.998377 -8.330420 23.036602 23.198458 15.873191 85.387566 83.457329 -58.858356 40.448448 4.767337 10.941360 -32.127506 -8.197807 -1.222261 16.552999 44.967525 -5.705532 -3.281801 -23.352465 12.440179 9.158118 -36.802948 -21.062231 -3.949286 59.992325 1.884824 4.952885 -0.344818 5.538408 11.532519 
0.750273 44.900257 1.495597 3.827011 8.618079 -22.355476 12.076006 -4.372137 5.797870 -7.402218 -1.912884 6.116381 30.215197 -14.498854 -1.212786 -20.034229 11.580729 44.596977 9.053614 16.274305 21.763790 -1.456592 -40.036953 -18.925009 -57.898754 25.544699 15.650310 -25.033817 2.340511 -11.085342 -10.529789 -8.190668 22.976547 23.219465 15.581379 85.503494 82.448181 -59.598900 39.823383 5.420940 11.089177 -31.804472 -8.673698 -1.691175 16.365322 45.061333 -5.664257 -3.246408 -23.287991 12.105285 8.831783 -37.186428 -21.698566 -4.170558 60.158688 1.641967 4.926923 -0.233108 5.340173 11.988628 
0.824228 44.873997 1.494035 4.063276 9.038870 -21.568653 12.076006 -4.372137 5.797870 -7.642078 -2.068395 6.078000 29.687208 -14.020640 -1.167672 -20.160450 11.245830 44.226135 8.557686 16.567560 21.872225 -2.093457 -40.071892 -18.644848 -55.579044 25.235722 15.225214 -24.777985 2.099880 -11.043262 -11.060979 -8.050337 22.916708 23.236116 15.303138 85.610687 81.410545 -60.339748 39.166359 6.076190 11.231246 -31.481972 -9.145630 -2.168831 16.200956 45.146847 -5.595721 -3.228323 -23.208124 11.770415 8.504940 -37.567493 -22.343235 -4.354331 60.324772 1.425915 4.895602 -0.138221 5.119962 12.418233 
1.000386 44.981121 1.504340 4.160470 9.973411 -20.527321 12.076006 -4.372137 5.797870 -7.818536 -2.680795 5.953522 28.856436 -13.503350 -1.125079 -20.372223 10.837541 43.834816 8.079408 16.829895 21.995607 -3.147020 -40.302822 -18.173193 -53.718990 25.107576 14.946696 -24.414083 1.816218 -10.972336 -11.625820 -8.112225 22.808161 23.312651 15.085719 85.745583 80.435944 -60.613953 37.953365 7.081799 11.272816 -30.956467 -9.280383 -3.710994 15.760032 44.182812 -5.243991 -3.083771 -22.629950 11.657117 8.022198 -38.063667 -23.826166 -4.883918 60.382328 1.056133 4.829114 1.017895 5.429558 12.919435 
